:SAMPLES-PER-SECOND 30
:FULLY-SPECIFIED
:DEGREES
848
root  -44.5012 39.1596 -2.92693 -32.2036 -84.3292 49.1174
RightUpLeg  -47.6001 -32.1282 13.2939
RightLeg  31.1032 -4.3893 -3.10417
RightFoot  -5.26815 0.450339 -9.1376
RightToes  2.91037e-010 0 -3.6325e-017
Spine  48.8482 -1.82837 8.92161
Spine1  12.5507 2.07183 -0.886931
HEad  -24.2949 -7.53509 -1.07501
LeftShoulder1  10.8971 -21.4713 -37.4303
LeftArm  -25.4436 -46.3432 -18.5725
LeftForeArm  36.1147 -4.67795 -3.67908
LeftHand  -0.244104 0.0205437 5.32207
RightShoulder  6.40186 15.2109 28.1643
RightArm  -25.7324 25.5903 9.1132
RightForeArm  -1.76908 -0.792814 4.23772
RightHand  -1.48827 5.4688 -16.1277
LeftUpLeg  -41.7678 22.7798 -10.2281
LeftLeg  27.0102 -1.34825 -0.409876
LeftFoot  -0.664746 -0.0566982 0.649601
LeftToes  -1.10052e-010 1.3781e-010 -2.1811e-011
849
root  -44.3837 38.9798 -3.01508 -29.7351 -84.6323 49.3806
RightUpLeg  -51.4667 -30.69 15.2727
RightLeg  31.8247 -4.66695 -3.368
RightFoot  -5.12908 0.472067 -9.30805
RightToes  2.91037e-010 0 -3.6325e-017
Spine  53.0165 -2.22785 8.62469
Spine1  12.2982 1.96338 -0.393595
HEad  -28.4896 -7.43921 -1.32497
LeftShoulder1  10.5141 -21.7739 -35.3948
LeftArm  -29.0748 -52.8042 -16.6637
LeftForeArm  36.3819 -4.48243 -3.29377
LeftHand  -0.244104 0.0205437 5.32207
RightShoulder  6.16178 15.7262 25.9233
RightArm  -28.6563 33.9381 8.46962
RightForeArm  0.934679 -0.55851 4.12333
RightHand  -1.5126 6.03674 -15.5828
LeftUpLeg  -45.104 23.015 -11.7851
LeftLeg  26.6613 -1.70438 -0.592108
LeftFoot  -1.13624 -0.210896 2.42577
LeftToes  -1.10052e-010 1.3781e-010 -2.1811e-011
850
root  -44.3127 38.7919 -3.12393 -22.4268 -84.6764 45.1639
RightUpLeg  -55.5552 -29.3592 17.5888
RightLeg  32.2881 -5.10071 -3.71699
RightFoot  -5.10392 0.494992 -9.68361
RightToes  2.91037e-010 0 -3.6325e-017
Spine  55.849 -2.70323 7.46356
Spine1  13.8338 0.36163 1.67695
HEad  -33.8267 -5.35379 -2.30152
LeftShoulder1  8.78603 -19.6038 -32.0037
LeftArm  -36.4053 -60.0817 -11.2483
LeftForeArm  34.3745 -4.35365 -2.49854
LeftHand  -0.244104 0.0205437 5.32207
RightShoulder  4.62536 16.5915 16.3344
RightArm  -34.9832 43.1829 13.2181
RightForeArm  3.32727 -0.958031 2.15864
RightHand  -1.80465 7.73073 -16.1946
LeftUpLeg  -49.4985 22.1698 -12.7849
LeftLeg  27.8357 -1.63854 -0.59673
LeftFoot  -0.727353 -0.257538 2.8242
LeftToes  -1.10052e-010 1.3781e-010 -2.1811e-011
851
root  -44.2983 38.6099 -3.23408 -17.4523 -84.6271 43.1923
RightUpLeg  -59.6 -28.3978 19.8306
RightLeg  32.9184 -5.09412 -3.79683
RightFoot  -5.06481 0.530533 -10.2612
RightToes  2.91037e-010 0 -3.6325e-017
Spine  59.0826 -3.8013 6.29926
Spine1  14.098 -1.50948 1.80547
HEad  -38.0325 -2.35401 -2.26708
LeftShoulder1  6.75157 -16.1729 -27.8487
LeftArm  -47.8014 -65.6206 -0.59151
LeftForeArm  29.4452 -4.20418 -1.76122
LeftHand  -0.244104 0.0205437 5.32207
RightShoulder  3.01527 17.8123 6.43956
RightArm  -42.8417 51.0666 16.7492
RightForeArm  3.49229 -1.31043 -0.446621
RightHand  -2.03574 9.07227 -16.5828
LeftUpLeg  -53.7748 21.4669 -13.7347
LeftLeg  29.0044 -1.72388 -0.692364
LeftFoot  0.00696073 -0.239064 2.40587
LeftToes  -1.10052e-010 1.3781e-010 -2.1811e-011
852
root  -44.3506 38.4335 -3.31471 -18.4957 -84.7254 46.9039
RightUpLeg  -63.512 -27.8777 21.8663
RightLeg  33.9728 -4.36458 -3.41589
RightFoot  -5.08678 0.557266 -10.7842
RightToes  2.91037e-010 0 -3.6325e-017
Spine  61.6356 -6.85073 6.9575
Spine1  14.9431 -1.82905 -5.31519
HEad  -41.1952 -0.518913 1.86954
LeftShoulder1  4.02489 -13.8611 -16.6648
LeftArm  -60.616 -68.7973 7.75217
LeftForeArm  23.2145 -3.66405 0.182393
LeftHand  -0.244104 0.0205437 5.32207
RightShoulder  2.64767 18.6212 3.99709
RightArm  -52.5944 56.9069 12.5916
RightForeArm  0.498064 -1.40483 -2.4487
RightHand  -1.99737 9.31995 -16.0113
LeftUpLeg  -57.5614 21.4919 -15.2811
LeftLeg  30.0807 -2.17139 -1.01475
LeftFoot  0.476373 -0.237618 2.26645
LeftToes  -1.10052e-010 1.3781e-010 -2.1811e-011
853
root  -44.4638 38.2387 -3.35517 -21.3523 -85.0125 52.1843
RightUpLeg  -67.2769 -27.5037 23.9947
RightLeg  35.2834 -3.3691 -2.82515
RightFoot  -5.23076 0.577775 -11.436
RightToes  2.91037e-010 0 -3.6325e-017
Spine  65.1122 -6.4529 6.76507
Spine1  12.9656 -1.13031 -5.52656
HEad  -41.939 -1.57774 2.60116
LeftShoulder1  4.25754 -15.4381 -15.6671
LeftArm  -73.1951 -69.4782 21.1222
LeftForeArm  17.6277 -3.42265 0.747308
LeftHand  -0.244104 0.0205437 5.32207
RightShoulder  2.32858 18.7732 2.29698
RightArm  -60.0041 57.9745 4.42732
RightForeArm  -3.71747 -1.33404 -2.91166
RightHand  -1.82523 9.17051 -14.8258
LeftUpLeg  -61.1426 21.6814 -16.9549
LeftLeg  31.5856 -2.45168 -1.27492
LeftFoot  0.42706 -0.274527 2.64041
LeftToes  -1.10052e-010 1.3781e-010 -2.1811e-011
854
root  -44.6122 38.0107 -3.37121 -22.1653 -85.4686 55.3454
RightUpLeg  -70.6397 -26.6829 25.9719
RightLeg  36.6053 -2.77141 -2.48243
RightFoot  -5.52558 0.585066 -12.1925
RightToes  2.91037e-010 0 -3.6325e-017
Spine  67.9428 -6.28451 6.57822
Spine1  11.2098 -0.615755 -6.26235
HEad  -42.4669 -1.93105 3.3336
LeftShoulder1  4.07463 -16.0737 -13.8431
LeftArm  -82.9159 -69.1764 31.1511
LeftForeArm  12.4914 -3.32983 1.31491
LeftHand  -0.244104 0.0205437 5.32207
RightShoulder  2.06177 18.8341 0.909392
RightArm  -65.9923 58.4712 -2.77073
RightForeArm  -6.71955 -1.59174 -3.20748
RightHand  -1.65212 9.49136 -13.1993
LeftUpLeg  -64.6838 21.6687 -18.1601
LeftLeg  33.381 -2.35967 -1.31718
LeftFoot  -0.106587 -0.293014 2.98475
LeftToes  -1.10052e-010 1.3781e-010 -2.1811e-011
